<svg xmlns="http://www.w3.org/2000/svg" viewBox="0 0 550.04 146.9"><defs><style>.cls-1{fill:none;stroke:#fff;stroke-linecap:round;stroke-linejoin:round;stroke-width:5px;}</style></defs><title>Asset 6</title><g id="Layer_2" data-name="Layer 2"><g id="Layer_1-2" data-name="Layer 1"><path class="cls-1" d="M380.38,118.42v12.07a5.88,5.88,0,0,1-2.76.41c-6.88,0-13.76,0-20.64,0-.67,0-1.49.3-1.92-.59a2.29,2.29,0,0,1,.35-2.52q6.27-8.76,12.49-17.52c3.37-4.75,6.68-9.55,10.11-14.26a2.9,2.9,0,0,0,.53-3.1,4.2,4.2,0,0,0-1.88-.28H358.3c-1.83,0-2.05.21-2,2,0,3.16,0,6.32,0,9.48"/><path class="cls-1" d="M186.7,118.42v12.07a5.88,5.88,0,0,1-2.76.41c-6.92,0-13.84,0-20.76,0-.64,0-1.4.26-1.81-.59a2.22,2.22,0,0,1,.25-2.4c3.28-4.64,6.54-9.29,9.84-13.92q5.81-8.12,11.64-16.2a17.68,17.68,0,0,1,1.34-2,2.45,2.45,0,0,0,.43-2.85,4.13,4.13,0,0,0-1.89-.29H164.62c-1.83,0-2.05.21-2,2,0,3.16,0,6.32,0,9.48"/><path class="cls-1" d="M273.34,106.66a3.2,3.2,0,0,1-1.92-.84,13.27,13.27,0,0,0-8.4-3.46c-3.28-.25-6.58,0-9.46,1.69a14.47,14.47,0,0,0-7.34,12.09,14.74,14.74,0,0,0,1.94,9A14,14,0,0,0,260,132a20.56,20.56,0,0,0,14.87-5c.68-.58,1.36-1.21,1.09-2.27"/><path class="cls-1" d="M465.94,109.18a4,4,0,0,1-1.93-1.43c-4.18-5-9.49-6.46-15.71-4.81a13.83,13.83,0,0,0,1.56,26.91c5.45.86,10-.54,13.68-4.71a7.71,7.71,0,0,1,2.4-1.92"/><path class="cls-1" d="M520.66,82.42A3.49,3.49,0,0,0,522,84.85a33.51,33.51,0,0,1,9.17,16.28,42.82,42.82,0,0,1,1.4,12,39.79,39.79,0,0,1-6.61,21.46,19,19,0,0,1-3.68,4.23,3.31,3.31,0,0,0-1.57,2.63"/><path class="cls-1" d="M344.14,82.42a2.73,2.73,0,0,1-.95,2.17c-5.72,5.11-8.68,11.76-10.16,19.08a43.88,43.88,0,0,0-.31,14.15A37.23,37.23,0,0,0,339.21,135a23.27,23.27,0,0,0,3.88,4.4,3.29,3.29,0,0,1,1.05,1.83"/><path class="cls-1" d="M226.42,116c-1.83,0-3.59-.59-5.4-.72-5.32-.38-10.65-.86-15.36,2.52-3.61,2.59-4.12,5.17-3.41,8.26s3,5,6.89,5.67c5.58.87,10.4-.84,14.76-4.21a4.2,4.2,0,0,1,2.4-1.08"/><path class="cls-1" d="M421.54,126.22c-1.22.11-2,1-2.88,1.68a17.41,17.41,0,0,1-11,4.09,7.67,7.67,0,0,1-7.8-7.81V105.94a5.86,5.86,0,0,0-.32-2.44c-2.22-.42-4.56-.1-6.88-.2"/><path class="cls-1" d="M315,130.42c0-6.28-.07-12.56,0-18.84a9.14,9.14,0,0,0-9-9.27,12.11,12.11,0,0,0-10.08,4,7.3,7.3,0,0,1-2.51,1.83c-1,.45-1.06,1.54-1.08,2.49,0,2.32,0,4.64,0,7v12.84"/><path class="cls-1" d="M104,130.78a11.34,11.34,0,0,1-4.38-.14,5.71,5.71,0,0,1-.3-2.5q0-9.36,0-18.72a8.2,8.2,0,0,0-1.64-5c-1.76-2.42-5.29-2.7-7.83-1.28a10.69,10.69,0,0,0-3,2.52,7.32,7.32,0,0,1-1.8,1.57,2.33,2.33,0,0,0-.83,2.14c0,6.64,0,13.28,0,19.92a7,7,0,0,0,.23,1.26c1.45.55,3,.22,4.44.24"/><path class="cls-1" d="M497.26,130.42V103.71a5.88,5.88,0,0,0-2.76-.41h-8.4"/><path class="cls-1" d="M62.38,44V17.31a5.88,5.88,0,0,0-2.76-.41h-8.4"/><path class="cls-1" d="M19.18,93.22v37.2"/><path class="cls-1" d="M234,130.72a26.35,26.35,0,0,1-6.64,0c-.58-1.39,0-3-.92-4.24a.33.33,0,0,1,0-.24c1.19-2.69.46-5.52.55-8.28a27.33,27.33,0,0,1,0-3.73c.19-1.16,0-2.4.06-3.59.38-4.38-3.15-7.16-6.5-7.92-4.2-1-8.22,0-12.24,1.09-.94.25-1.85.61-2.88.95v1.44"/><path class="cls-1" d="M427.66,130.72a22,22,0,0,1-3.72.18c-1.33,0-1.65-.31-1.67-1.68a4.73,4.73,0,0,0-.5-2.64.84.84,0,0,1,0-1,5.34,5.34,0,0,0,.47-2.89c0-5.76,0-11.52,0-17.28,0-2.4-.67-2.18-2.16-2.16-1.8,0-3.6,0-5.4,0"/><path class="cls-1" d="M293,108.1a4.77,4.77,0,0,1-.73-2.88c0-4.32,0-8.64,0-13a5.81,5.81,0,0,0-.31-2.41c-2.32-.48-4.73-.16-7.13-.11"/><path class="cls-1" d="M64.18,103.3c1.54.08,3.1-.22,4.63.26.36.92.26,2,.89,2.86a1,1,0,0,1,0,1.07,7.72,7.72,0,0,0-.6,3.61c0,6.44,0,12.88,0,19.32"/><path class="cls-1" d="M8.62,24.58H30"/><path class="cls-1" d="M473.14,103.36c-1.6,0-3.2,0-4.8-.07a1.24,1.24,0,0,0-1.43,1.33c-.06,1.57.19,3.16-.82,4.58-.16.23.13.78.21,1.18a28.08,28.08,0,0,1-.13,12.24,1.21,1.21,0,0,0,.11,1.09,4.65,4.65,0,0,1,.63,2.75c0,5.8,0,11.6,0,17.4"/><path class="cls-1" d="M30.58,6.7V22.42a3.82,3.82,0,0,1-.25,1.68c-.1.24-.28.43-.11.72a6.15,6.15,0,0,1,.35,3.12c0,5.36,0,10.72,0,16.08"/><path class="cls-1" d="M8,6.7V22.42a3.82,3.82,0,0,0,.25,1.68c.1.24.28.43.11.72A6.15,6.15,0,0,0,8,27.94C8,33.3,8,38.66,8,44"/><path class="cls-1" d="M84.7,107.38a3,3,0,0,1-1.07-1.33c-2.47-5-7.46-4.46-10.69-1.43-.91.86-1.68,1.89-3,2.16"/><path class="cls-1" d="M483.46,130.78c3.12.26,6.24.07,9.36.12,2.64,0,5.27-.17,7.92,0s5.2,0,7.8,0h3.84"/><path class="cls-1" d="M76.06,44.5c-4.6-.2-9.22.42-13.8-.36-4.55.78-9.12.21-13.68.3"/><path class="cls-1" d="M31.54,92.62H21.7a3.71,3.71,0,0,0-2.17.35.57.57,0,0,1-.6,0,5.88,5.88,0,0,0-3.11-.36c-3.44,0-6.88,0-10.32,0"/><path class="cls-1" d="M31.54,130.78c-2.76.25-5.52.08-8.28.12-2.48,0-5-.17-7.44,0s-4.8,0-7.2,0H5.5"/><path class="cls-1" d="M473.14,144.4c-2-.27-4.11.28-6.13-.38-.44-.14-1,.29-1.55.3-2.64.06-5.28.06-7.92.08"/><path class="cls-1" d="M36.1,44.44a26.93,26.93,0,0,1-3.36,0c-3-.35-6,.37-9-.16"/><path class="cls-1" d="M34.54,6.22a14.46,14.46,0,0,0-3.86.31c-.62.21-1.37-.36-2.14-.33-1.6,0-3.2,0-4.8,0"/><path class="cls-1" d="M14.26,6.22a29.05,29.05,0,0,0-4,0c-2.13.31-4.24-.16-6.36,0"/><path class="cls-1" d="M286.06,130.72a19.32,19.32,0,0,0,6-.12c.85-.22,1.87.36,2.86.32a36,36,0,0,0,3.6-.2"/><path class="cls-1" d="M2.5,44.44a22.19,22.19,0,0,0,3.36,0c2.8-.36,5.61.37,8.4-.09"/><path class="cls-1" d="M64.18,130.9a17.55,17.55,0,0,0,1.92,0c3-.34,6,.26,9-.11"/><path class="cls-1" d="M320.38,130.9c-1.84-.14-3.72-.22-5.52-.21s-3.6.09-5.4.15"/><path class="cls-1" d="M274.12,102.34a6.46,6.46,0,0,1-.55,3.83,1.72,1.72,0,0,0,0,1.44,9.58,9.58,0,0,1,.46,4"/><path class="cls-1" d="M520.9,84l-1.32.12"/><path class="cls-1" d="M61.3,5.06V7.94"/><path class="cls-1" d="M48.3,92.06v2.88"/><path class="cls-1" d="M496.3,91.06v2.88"/><path class="cls-1" d="M94.54,2.5V32.74"/><path class="cls-1" d="M94.3,44.06v2.88"/><path class="cls-1" d="M547.54,89.5v30.24"/><path class="cls-1" d="M547.3,131.06v2.88"/></g></g></svg>