<svg xmlns="http://www.w3.org/2000/svg" viewBox="0 0 555.08 157.1"><title>Asset 5</title><g id="Layer_2" data-name="Layer 2"><g id="Layer_1-2" data-name="Layer 1"><path d="M14,7.42v15H37v-15H30.83V.81H51.12V7.42H45V47.18h6.12v6.61H30.83V47.18H37V29H14V47.18h6.26v6.61H0V47.18H6V7.42H0V.81H20.25V7.42Z"/><path d="M73.55,47.32v6.47H54.88V47.32h5.76v-24H54.88v-6.5h13V47.32ZM68.34,4.39A4.22,4.22,0,0,1,67,7.49,4.2,4.2,0,0,1,64,8.79a4.09,4.09,0,0,1-3.06-1.3,4.31,4.31,0,0,1-1.27-3.1A4.31,4.31,0,0,1,60.89,1.3,4.09,4.09,0,0,1,64,0a4.32,4.32,0,0,1,4.39,4.39Z"/><path d="M81.81,64.3v-4C84.9,60,86.45,58,86.45,54.49a1.66,1.66,0,0,0-.11-.7H81.81V44.44H91.2v9a18.39,18.39,0,0,1-.83,6.13A6.14,6.14,0,0,1,87.52,63,13.5,13.5,0,0,1,81.81,64.3Z"/><path d="M14.06,93.82v39.76h5.77v6.61H.32v-6.61H6.05V93.82H.32V87.21H19.83v6.61Z"/><path d="M32.34,97.26v-.7h-4.6V87.21h9.35v10c0,3.43-.73,5.89-2.2,7.4s-3.85,2.34-7.15,2.48v-4Q32.35,102.55,32.34,97.26Z"/><path d="M50.94,133.72v-24H44.72v-6.5H58.18v4.68q6.51-5.17,12.77-5.17t8.78,5.76q7.11-5.76,13.4-5.76a9.7,9.7,0,0,1,7.12,2.63q2.66,2.64,2.65,8.09v20.25h6.47v6.47H95.7V116.78a25.9,25.9,0,0,0-.25-3.94,4.6,4.6,0,0,0-1.28-2.57,4.48,4.48,0,0,0-3.29-1,11.84,11.84,0,0,0-4.68,1.19A25.91,25.91,0,0,0,80.58,114v19.72h6.26v6.47H73.3V115.86c0-2.37-.36-4.06-1.07-5.1a4,4,0,0,0-3.53-1.54q-4,0-10.52,4.78v19.72h6.51v6.47H44.3v-6.47Z"/><path d="M141.64,133.58h23.52V123.35h6.58v16.84H132.36v-6.33l28.44-40H140.2v9.28h-6.57V87.21h37.23V93Z"/><path d="M208.23,116.28v17.44h6.19v6.47H201.83v-4.54a16.39,16.39,0,0,1-11.74,5.17A12.7,12.7,0,0,1,179.31,135a11.11,11.11,0,0,1,.18-12.09,12.21,12.21,0,0,1,5.08-4.2,15.15,15.15,0,0,1,6.43-1.48,17.64,17.64,0,0,1,10.09,3.17v-4q0-4.32-1.82-6.18t-6-1.87a10.28,10.28,0,0,0-4.94,1.08A8.45,8.45,0,0,0,185,112.7l-7-1.73a15.54,15.54,0,0,1,6.36-6.55,19.81,19.81,0,0,1,9.53-2.16q7.41,0,10.84,3.37T208.23,116.28Zm-17.16,18.95q5.35,0,10-4.46v-4.33a15.42,15.42,0,0,0-9.49-3.69,7.37,7.37,0,0,0-5,1.81,6.08,6.08,0,0,0-.27,8.93A6.56,6.56,0,0,0,191.07,135.23Z"/><path d="M247,105.91v-2.67h6.47v14H247a8.45,8.45,0,0,0-3.23-6.17,10.48,10.48,0,0,0-6.51-2.12,10,10,0,0,0-5.67,1.68,11.21,11.21,0,0,0-3.89,4.57,14.56,14.56,0,0,0-1.37,6.3,14.22,14.22,0,0,0,3.09,9.47,10.16,10.16,0,0,0,8.16,3.67q7.84,0,11.08-7.27l6,2.88q-5.1,11-17.44,11a18.54,18.54,0,0,1-9.8-2.6,17.69,17.69,0,0,1-6.63-7.14,21.57,21.57,0,0,1-2.34-10,20.57,20.57,0,0,1,2.37-9.85,17.48,17.48,0,0,1,15.77-9.38A15.51,15.51,0,0,1,247,105.91Z"/><path d="M283.82,102.26q10.29,0,10.3,11.14v20.32h6.26v6.47H286.84V116q0-4-1.14-5.59a4,4,0,0,0-3.54-1.62q-4,0-10.51,4.75v20.18h6.4v6.47H257.77v-6.47h6.61V93.61h-6.61v-6.4h13.88v20.35Q278.19,102.27,283.82,102.26Z"/><path d="M336.59,107.71a56.09,56.09,0,0,0-1.38,14,62.59,62.59,0,0,0,.88,11.32,29.44,29.44,0,0,0,2.61,8,25.33,25.33,0,0,0,9.56,10.19v5.91q-7.85-3.09-14.35-12.31-6.39-9-6.39-23.16,0-12.63,5.62-22a32,32,0,0,1,15.12-13.39V92.1a21.33,21.33,0,0,0-7.09,6.43A26.88,26.88,0,0,0,336.59,107.71Z"/><path d="M362.07,133.58h23.52V123.35h6.58v16.84H352.79v-6.33l28.44-40h-20.6v9.28h-6.57V87.21h37.23V93Z"/><path d="M413.75,134.49q4.89,0,10.59-4.74v-20H417.8v-6.5h13.81v30.48h6.33v6.47h-13.6v-4.25q-6.4,4.88-12.17,4.88-5.21,0-7.68-3.09T402,127.46V109.74h-5.17v-6.5h12.45V129a6.78,6.78,0,0,0,1,4.19A4.06,4.06,0,0,0,413.75,134.49Z"/><path d="M473.31,109.15v-5.91h13.43v6.5h-6.19v40.54h6.72v6.47h-21.1v-6.47h7.14V135.51a17.53,17.53,0,0,1-13,5.77,16.79,16.79,0,0,1-9.3-2.64,18.15,18.15,0,0,1-6.4-7.1,20.8,20.8,0,0,1-2.3-9.7,20.45,20.45,0,0,1,2.3-9.67,17.23,17.23,0,0,1,15.63-9.42A16.33,16.33,0,0,1,473.31,109.15Zm-11.6,25.48a11.27,11.27,0,0,0,5.85-1.58,11.75,11.75,0,0,0,4.29-4.39,12.57,12.57,0,0,0,1.6-6.33,14,14,0,0,0-1.55-6.47,12.7,12.7,0,0,0-4.32-4.87,11.17,11.17,0,0,0-6.33-1.84,10.61,10.61,0,0,0-8.26,3.49,13.11,13.11,0,0,0-3.17,9.13,13.25,13.25,0,0,0,3.24,9.35A11.19,11.19,0,0,0,461.71,134.63Z"/><path d="M508.22,133.72v6.47H489.55v-6.47h5.77v-24h-5.77v-6.5h13v30.48ZM503,90.79a4.23,4.23,0,0,1-1.31,3.1,4.19,4.19,0,0,1-3.09,1.3,4.12,4.12,0,0,1-3.06-1.3,4.43,4.43,0,0,1,0-6.19,4.12,4.12,0,0,1,3.06-1.3,4.34,4.34,0,0,1,4.4,4.39Z"/><path d="M526.92,99.44q5.83,9.07,5.84,22.26,0,12.58-5.29,21.44a36.46,36.46,0,0,1-15.52,14v-5.91a23.11,23.11,0,0,0,7.94-7.47,26.11,26.11,0,0,0,4.08-9.51,42.75,42.75,0,0,0,.84-6q.18-2.82.18-7.35,0-13.26-4.11-19.72T512,92.1V86.26A33.69,33.69,0,0,1,526.92,99.44Z"/><path d="M545.7,140.19v-9.35h9.38v9.35Zm6.57-14.34h-3.83l-1.94-22.61v-16h7.7v16Z"/></g></g></svg>