<?xml version="1.0" encoding="utf-8"?>
<!-- Generator: Adobe Illustrator 19.1.0, SVG Export Plug-In . SVG Version: 6.00 Build 0)  -->
<svg version="1.1" xmlns="http://www.w3.org/2000/svg" xmlns:xlink="http://www.w3.org/1999/xlink" x="0px" y="0px"
	 viewBox="0 0 393.5 220.5" style="enable-background:new 0 0 393.5 220.5;" xml:space="preserve">
<style type="text/css">
	.st0{fill:none;stroke:#ffffff;stroke-width:5;stroke-miterlimit:10;}
</style>
<g id="Layer_1">
	<line class="st0" x1="39.8" y1="35.7" x2="59" y2="35.7"/>
	<line class="st0" x1="49.4" y1="84.2" x2="49.4" y2="35.7"/>
	<line class="st0" x1="39.8" y1="84.2" x2="59" y2="84.2"/>
	<line class="st0" x1="75.8" y1="35.7" x2="94.9" y2="35.7"/>
	<line class="st0" x1="85.3" y1="84.2" x2="85.3" y2="35.7"/>
	<line class="st0" x1="75.8" y1="84.2" x2="94.9" y2="84.2"/>
	<line class="st0" x1="49.4" y1="59.9" x2="85.3" y2="59.9"/>
	<polyline class="st0" points="102.7,50.5 111.9,50.5 111.9,84.2 	"/>
	<line class="st0" x1="103" y1="84.2" x2="120.9" y2="84.2"/>
	<line class="st0" x1="111.9" y1="33.2" x2="111.9" y2="39.7"/>
	<line class="st0" x1="133" y1="80.6" x2="127.7" y2="96.3"/>
	<line class="st0" x1="39.8" y1="127.2" x2="59" y2="127.2"/>
	<line class="st0" x1="49.4" y1="175.7" x2="49.4" y2="127.2"/>
	<line class="st0" x1="39.8" y1="175.7" x2="59" y2="175.7"/>
	<line class="st0" x1="74" y1="123.3" x2="68.7" y2="139"/>
	<polyline class="st0" points="82.7,141.4 91.8,141.4 91.8,175.7 	"/>
	<line class="st0" x1="83.1" y1="175.7" x2="100.8" y2="175.7"/>
	<path class="st0" d="M91.8,156.9c6.6-20.8,26.7-20.9,26.7-2.6v21.4h8.6"/>
	<path class="st0" d="M118.2,156.9c6.6-20.8,26.7-20.9,26.7-2.6v21.4h8.6"/>
	<polyline class="st0" points="181.3,137.2 181.3,127.2 213.8,127.2 180.2,175.7 214.5,175.7 214.5,165 	"/>
	<path class="st0" d="M222.1,141.8h9.4v22.8c0,21.2,27.2,10.7,27.2-5.4s0-17.4,0-17.4h-9.2"/>
	<polyline class="st0" points="267.1,175.7 258.7,175.7 258.7,152.9 	"/>
	<line class="st0" x1="306" y1="190.7" x2="306" y2="139.6"/>
	<line class="st0" x1="296.4" y1="190.7" x2="315.6" y2="190.7"/>
	<path class="st0" d="M306,160.2c0-23.6-29.4-27.2-29.4-1C276.6,184.4,306,178.9,306,160.2z"/>
	<polyline class="st0" points="318.4,141.4 327.7,141.4 327.7,175 	"/>
	<line class="st0" x1="318.8" y1="176" x2="336.7" y2="176"/>
	<line class="st0" x1="327.7" y1="124" x2="327.7" y2="130.5"/>
	<line class="st0" x1="348.3" y1="124.8" x2="348.3" y2="163.5"/>
	<line class="st0" x1="348.3" y1="172.2" x2="348.3" y2="178.2"/>
</g>
<g id="Layer_2">
</g>
</svg>
